<?xml version="1.0" standalone="no"?>
<!DOCTYPE svg PUBLIC "-//W3C//DTD SVG 20010904//EN"
 "http://www.w3.org/TR/2001/REC-SVG-20010904/DTD/svg10.dtd">
<svg version="1.0" xmlns="http://www.w3.org/2000/svg"
 width="260.000000pt" height="260.000000pt" viewBox="0 0 260.000000 260.000000"
 preserveAspectRatio="xMidYMid meet">
<metadata>
Created by potrace 1.14, written by Peter Selinger 2001-2017
</metadata>
<g transform="translate(0.000000,260.000000) scale(0.100000,-0.100000)"
fill="#000000" stroke="none">
<path d="M740 2339 c-125 -7 -221 -31 -261 -65 -8 -8 -20 -14 -25 -14 -19 0
-121 -117 -143 -165 -32 -68 -41 -99 -49 -175 -9 -84 -8 -1165 1 -1251 12
-118 52 -201 135 -285 30 -30 59 -54 66 -54 7 0 21 -8 32 -17 11 -10 26 -19
34 -21 8 -2 16 -7 18 -12 2 -4 13 -5 25 -2 20 5 21 4 7 -13 -14 -17 -14 -17 8
-4 15 10 27 11 40 4 9 -6 42 -10 72 -10 30 0 58 -4 62 -10 5 -6 8 -4 9 5 0 10
3 8 9 -5 8 -18 9 -18 9 -2 1 10 5 16 10 12 5 -3 34 -6 63 -6 29 -1 56 -7 60
-13 6 -8 8 -7 8 2 0 17 386 17 394 -1 3 -9 5 -9 5 1 1 16 33 16 50 0 10 -11
11 -9 5 6 -5 14 -4 17 5 12 7 -5 29 -8 49 -8 20 0 43 -5 50 -10 10 -8 11 -6 6
8 -7 18 -6 18 16 -1 13 -11 20 -15 16 -8 -5 9 18 12 89 12 73 0 94 -3 89 -12
-4 -7 2 -3 14 7 22 19 22 19 22 0 0 -11 3 -15 8 -8 10 15 82 26 82 12 0 -6 7
-5 17 3 15 12 16 12 8 -1 -8 -13 -7 -13 9 -1 15 13 19 13 27 0 5 -8 9 -9 9 -3
0 6 10 10 23 10 12 -1 29 1 38 5 8 4 26 9 40 11 13 2 30 7 38 12 9 6 12 5 8
-1 -3 -5 0 -10 8 -10 8 0 13 5 12 11 -1 6 4 10 11 8 6 -1 12 2 12 6 0 4 14 16
30 25 21 13 30 14 30 6 0 -7 3 -9 7 -5 5 4 8 12 8 17 0 15 57 59 68 52 6 -3 7
-1 3 5 -4 6 7 30 23 53 32 44 71 137 71 169 0 11 5 20 11 20 8 0 9 4 0 13 -6
8 -8 17 -5 20 9 9 8 1224 -1 1278 -23 147 -121 285 -239 339 -108 48 -133 50
-699 53 -292 1 -588 -1 -657 -4z"/>
</g>
</svg>
